<svg width="64" height="64" xmlns="http://www.w3.org/2000/svg" style="background:#000"><g fill="none" fill-rule="evenodd"><path fill="#410CB1" d="M0 0h64v64H0z"/><path d="M36.2 26.984a7.502 7.502 0 0 1-1.68 8.044l-6.61 6.61A7.5 7.5 0 1 1 17.303 31.03l6.61-6.61a7.502 7.502 0 0 1 8.044-1.68l-2.49 2.49a4.489 4.489 0 0 0-3.432 1.312l-6.61 6.61a4.5 4.5 0 0 0 6.364 6.364l6.61-6.61a4.489 4.489 0 0 0 1.31-3.433l2.49-2.49zm-4.755 13.24l2.49-2.49a4.489 4.489 0 0 0 3.433-1.312l6.61-6.61a4.5 4.5 0 1 0-6.364-6.364l-6.61 6.61a4.489 4.489 0 0 0-1.31 3.433l-2.491 2.49a7.502 7.502 0 0 1 1.68-8.044l6.61-6.61a7.5 7.5 0 1 1 10.606 10.607l-6.61 6.61a7.502 7.502 0 0 1-8.044 1.68z" fill="#FFF" fill-rule="nonzero"/></g></svg>